# xmcd
#
# Track frame offsets:
#	150
#	15988
#	39760
#	62258
#	72265
#	86418
#	102538
#	119030
#	140803
#	156768
#	171243
#	196150
#	211480
#
# Disc length: 3203 seconds
#
# Revision: 1
# Processed by: cddbd v1.5.1PL0 Copyright (c) Steve Scherf et al.
# Submitted via: CDex 1.50Beta5
#
DISCID=af0c810d
DTITLE=大島ミチル - クイーンエメラルダスの世界
DYEAR=2000
DGENRE=
TTITLE0=大島ミチル/宇宙のサルガッソー
TTITLE1=松本圭未/クイーネメラルダス
TTITLE2=りりィ/ひとりでも ひとりではない
TTITLE3=大島ミチル/屈辱
TTITLE4=横山菁児/エメラルダスのテーマ
TTITLE5=佐々木功/枯木霊歌
TTITLE6=大島ミチル/傷の理由
TTITLE7=町田義人/美しい女…エメラルダス
TTITLE8=町田義人/男たちのバラード
TTITLE9=大島ミチル/サイレンの女神
TTITLE10=りりィ/Sence OF Revenge,A
TTITLE11=大島ミチル/旅発
TTITLE12=松本圭未/SILENT SONG
EXTD=
EXTT0=
EXTT1=
EXTT2=
EXTT3=
EXTT4=
EXTT5=
EXTT6=
EXTT7=
EXTT8=
EXTT9=
EXTT10=
EXTT11=
EXTT12=
PLAYORDER=
